
<svg version="1.1" xmlns="http://www.w3.org/2000/svg" width="3297" height="3360">
<path d="M0 0 C1.61665633 1.36029335 3.22084195 2.73553955 4.8125 4.125 C5.64523438 4.8365625 6.47796875 5.548125 7.3359375 6.28125 C31.91325711 27.75804621 46.58696057 57.59195403 56.8125 88.125 C57.08755371 88.93420898 57.36260742 89.74341797 57.64599609 90.57714844 C70.15526609 128.19199319 75.0977412 169.70185628 79.125 209 C79.24723938 210.19207565 79.24723938 210.19207565 79.37194824 211.40823364 C81.16514108 229.15477901 81.96180765 246.74697538 81.9401505 264.57757962 C81.94139582 266.60596883 81.9430781 268.6343578 81.94515286 270.66274633 C81.94958229 276.22495547 81.94783241 281.78714785 81.94505108 287.34935741 C81.94312246 293.42762988 81.9470148 299.50589917 81.95014787 305.58417076 C81.95485586 316.27428216 81.95588046 326.96438829 81.95441952 337.65450014 C81.95286324 349.18206474 81.95350442 360.70962619 81.95676073 372.23719047 C81.95706868 373.33495287 81.95706868 373.33495287 81.95738285 374.45489229 C81.95844042 378.19181829 81.9595319 381.92874428 81.9606343 385.66567026 C81.96860222 412.94118622 81.97160425 440.216701 81.97208023 467.49221802 C81.97257493 495.13723692 81.97522212 522.78225437 81.98048782 550.4272728 C81.98082136 552.19036706 81.98115483 553.95346132 81.98148823 555.71655559 C81.98283636 562.82547063 81.98419966 569.93438566 81.98558033 577.0433007 C82.0007415 655.21702544 82.00752227 733.39074981 82.0120023 811.56447579 C82.01205899 812.55309387 82.01211568 813.54171194 82.01217409 814.56028813 C82.01246061 819.56098807 82.01274564 824.56168801 82.0130282 829.56238794 C82.01540399 871.4713366 82.01911379 913.3802851 82.0230653 955.28923364 C82.0249579 975.36354693 82.02678641 995.43786023 82.0285995 1015.51217353 C82.02868969 1016.51057716 82.02877988 1017.50898079 82.0288728 1018.53763908 C82.03320893 1066.58849232 82.03713728 1114.63934559 82.04059982 1162.6901989 C82.0406737 1163.71518181 82.04074757 1164.74016473 82.04082368 1165.79620773 C82.04551825 1231.11220529 82.04834153 1296.42820281 82.0499866 1361.74420051 C82.05012218 1367.09880014 82.05026121 1372.45339977 82.05040014 1377.80799939 C82.05062262 1386.39265378 82.05084399 1394.97730816 82.05106402 1403.56196255 C82.05109129 1404.62574149 82.05111856 1405.68952044 82.05114666 1406.78553511 C82.05120177 1408.93551373 82.05125688 1411.08549235 82.05131199 1413.23547096 C82.05169861 1428.31683432 82.05208655 1443.39819768 82.05248112 1458.47956104 C82.05262223 1463.87596558 82.0527623 1469.27237012 82.05290002 1474.66877467 C82.05550414 1576.58537702 82.0608339 1678.50197786 82.07678223 1780.4185791 C82.07695002 1781.49143835 82.07711781 1782.5642976 82.07729069 1783.66966774 C82.08254142 1817.19074858 82.08811577 1850.71182937 82.09375 1884.23291016 C82.09953107 1918.62852031 82.10526166 1953.02413047 82.11070633 1987.41974068 C82.11095804 1989.00837079 82.11095804 1989.00837079 82.11121484 1990.62909445 C82.12170944 2056.96762858 82.12857001 2123.30616229 82.13157272 2189.64469719 C82.13161953 2190.66943449 82.13166635 2191.69417178 82.13171458 2192.74996173 C82.13376532 2237.75607346 82.13500933 2282.76218519 82.13536063 2327.76829697 C82.1355039 2345.87487726 82.13574256 2363.98145754 82.13602469 2382.08803783 C82.13607022 2385.09015062 82.13611187 2388.09226342 82.1361528 2391.09437621 C82.1367987 2437.00053361 82.13975256 2482.90668927 82.14961338 2528.81284571 C82.14993194 2530.2971791 82.14993194 2530.2971791 82.15025693 2531.81149902 C82.15368558 2547.72905842 82.15729858 2563.64661778 82.16093333 2579.56417713 C82.17124987 2624.76513473 82.18002704 2669.96609019 82.17808867 2715.16704917 C82.17803056 2716.54362136 82.17803056 2716.54362136 82.17797127 2717.94800309 C82.17709458 2737.9725826 82.17538227 2757.99716195 82.17285165 2778.02174132 C82.17185494 2786.00886498 82.17096827 2793.99598866 82.17011642 2801.98311234 C82.17002054 2802.85435574 82.16992465 2803.72559915 82.16982586 2804.62324388 C82.16684025 2832.22524453 82.17305835 2859.82723275 82.18463529 2887.42923085 C82.19600308 2914.62448004 82.19821352 2941.8197126 82.18722978 2969.01496249 C82.18572382 2972.74704265 82.18432247 2976.47912285 82.18298396 2980.21120308 C82.18271792 2980.94177708 82.18245187 2981.67235108 82.18217777 2982.42506368 C82.1782699 2993.90285774 82.1843181 3005.38062316 82.19472382 3016.85841226 C82.20472085 3028.11313089 82.20366695 3039.36780724 82.19187287 3050.62252787 C82.18590776 3056.60387064 82.18446481 3062.58511102 82.19655773 3068.56644686 C82.3430143 3146.09446624 70.50412935 3221.17386807 14.25 3278.9375 C-18.893845 3311.13098385 -62.86622268 3329.06877203 -107.9375 3336.4375 C-108.83227051 3336.58469482 -109.72704102 3336.73188965 -110.64892578 3336.88354492 C-128.46670486 3339.56452612 -146.37719895 3340.42441936 -164.37063718 3340.380301 C-166.40517088 3340.38279476 -168.43970367 3340.38616121 -170.47423468 3340.39030572 C-176.02553165 3340.39912187 -181.57676105 3340.39568149 -187.12805966 3340.39010215 C-193.20489192 3340.38623096 -199.28171173 3340.39403852 -205.35854048 3340.40029573 C-216.03675003 3340.40969433 -226.7149385 3340.41176567 -237.39314988 3340.40883905 C-248.90344774 3340.40572265 -260.41373299 3340.40701732 -271.92402956 3340.41352147 C-273.02156417 3340.41413736 -273.02156417 3340.41413736 -274.1412712 3340.41476569 C-277.87764352 3340.41688093 -281.61401581 3340.41906386 -285.35038808 3340.42126859 C-312.59747807 3340.43718997 -339.8445634 3340.44320781 -367.09165764 3340.44416046 C-394.70190371 3340.44515037 -422.31214394 3340.45044998 -449.92238808 3340.46097565 C-451.68421391 3340.46164273 -453.44603974 3340.46230967 -455.20786557 3340.46297646 C-462.31181528 3340.46567276 -469.41576497 3340.46839937 -476.51971465 3340.47116067 C-554.60577133 3340.50146965 -632.69182654 3340.51504212 -710.77788818 3340.5240046 C-712.25875674 3340.52417467 -712.25875674 3340.52417467 -713.76954185 3340.52434817 C-718.76332462 3340.52492122 -723.75710739 3340.52549129 -728.75089016 3340.52605641 C-770.61133694 3340.53080902 -812.47178308 3340.53822878 -854.33222937 3340.5461306 C-874.38641522 3340.54991581 -894.4406011 3340.55357285 -914.49478698 3340.557199 C-915.99090124 3340.55746957 -915.99090124 3340.55746957 -917.51724004 3340.55774561 C-965.51841945 3340.56641752 -1013.51959897 3340.57427427 -1061.52077866 3340.58119965 C-1062.54466131 3340.58134739 -1063.56854396 3340.58149514 -1064.62345337 3340.58164736 C-1129.86146204 3340.59103536 -1195.0994705 3340.59668269 -1260.33747974 3340.59997321 C-1265.68508073 3340.60024436 -1271.03268172 3340.60052242 -1276.38028271 3340.60080029 C-1284.953675 3340.60124523 -1293.52706728 3340.60168797 -1302.10045957 3340.60212805 C-1303.16283894 3340.60218259 -1304.22521831 3340.60223713 -1305.319791 3340.60229332 C-1307.46693852 3340.60240355 -1309.61408605 3340.60251377 -1311.76123357 3340.60262398 C-1326.82266859 3340.60339721 -1341.8841036 3340.6041731 -1356.94553861 3340.60496225 C-1362.33480113 3340.60524446 -1367.72406364 3340.60552461 -1373.11332616 3340.60580004 C-1474.90760588 3340.61100892 -1576.70187951 3340.62167406 -1678.49615479 3340.65356445 C-1679.5679368 3340.65390004 -1680.63971881 3340.65423563 -1681.74397907 3340.65458138 C-1715.23215157 3340.66508307 -1748.72032385 3340.67623168 -1782.20849609 3340.6875 C-1816.57069516 3340.6990621 -1850.93289425 3340.71052327 -1885.29509354 3340.72141266 C-1886.35314788 3340.72174827 -1887.41120222 3340.72208389 -1888.50131882 3340.72242967 C-1954.76989502 3340.74341721 -2021.03846954 3340.75713951 -2087.3070488 3340.76314545 C-2088.33061788 3340.76323907 -2089.35418695 3340.76333269 -2090.40877328 3340.76342915 C-2135.36223764 3340.76753052 -2180.31570195 3340.77001865 -2225.26916649 3340.77072127 C-2243.35405311 3340.77100779 -2261.43893972 3340.77148511 -2279.52382633 3340.77204938 C-2282.52233403 3340.77214044 -2285.52084172 3340.77222375 -2288.51934941 3340.7723056 C-2334.37433593 3340.77359752 -2380.22931548 3340.77950761 -2426.08429813 3340.79922676 C-2427.07287468 3340.7996515 -2428.06145122 3340.80007625 -2429.07998463 3340.80051386 C-2444.9818759 3340.80737119 -2460.88376702 3340.81459718 -2476.78565811 3340.82186667 C-2521.93555838 3340.84249672 -2567.08545007 3340.86005499 -2612.23535585 3340.85617733 C-2613.15182092 3340.85609985 -2614.06828598 3340.85602238 -2615.01252271 3340.85594255 C-2635.00860901 3340.85418927 -2655.00469466 3340.85076484 -2675.00078039 3340.8457033 C-2682.97618945 3340.84370985 -2690.95159855 3340.84193652 -2698.92700768 3340.84023285 C-2700.23196119 3340.83994519 -2700.23196119 3340.83994519 -2701.5632774 3340.83965171 C-2729.13536623 3340.83367825 -2756.70740528 3340.84612399 -2784.27948392 3340.86927058 C-2811.43983568 3340.89199451 -2838.60012084 3340.89643977 -2865.7604754 3340.87445957 C-2869.48572539 3340.87144754 -2873.2109755 3340.86864488 -2876.93622574 3340.86596793 C-2878.03010226 3340.86516979 -2878.03010226 3340.86516979 -2879.1460773 3340.86435553 C-2890.61412728 3340.8565325 -2902.08206276 3340.86865103 -2913.55009288 3340.88944764 C-2924.78855923 3340.90941608 -2936.02685609 3340.9073641 -2947.26533038 3340.88374574 C-2953.24083775 3340.87179545 -2959.21593469 3340.86898535 -2965.19141459 3340.89311546 C-2988.65481215 3340.98166717 -3010.54075885 3340.8961587 -3033.1875 3334.125 C-3035.38123673 3333.51858589 -3037.57629329 3332.91692821 -3039.77257587 3332.31980029 C-3101.07672214 3315.61034616 -3157.19860136 3281.59847546 -3189.65185547 3225.65673828 C-3199.77867722 3207.59772351 -3206.42753285 3188.65244979 -3210.9375 3168.5 C-3211.13633789 3167.61916748 -3211.33517578 3166.73833496 -3211.54003906 3165.83081055 C-3214.87496694 3150.11860961 -3215.5960673 3134.5129566 -3215.5625 3118.5 C-3215.56195618 3117.51799622 -3215.56141235 3116.53599243 -3215.56085205 3115.52423096 C-3215.49301639 3088.7258895 -3211.75975512 3063.12580198 -3205.1875 3037.125 C-3204.9694873 3036.25584961 -3204.75147461 3035.38669922 -3204.52685547 3034.49121094 C-3197.80934837 3008.28295417 -3178.90627712 2987.39226065 -3158.640625 2970.0859375 C-3152.86529385 2965.06796043 -3147.55894324 2959.56607306 -3142.1875 2954.125 C-3130.53215167 2942.31856382 -3130.53215167 2942.31856382 -3124.203125 2936.91796875 C-3119.83299553 2933.03058614 -3115.79208053 2928.78846978 -3111.6875 2924.625 C-3106.33333557 2919.19401829 -3100.98663792 2913.86968637 -3095.19335938 2908.90820312 C-3091.17618506 2905.33694689 -3087.45636991 2901.45436541 -3083.6875 2897.625 C-3078.67829531 2892.53539074 -3073.64727219 2887.59495399 -3068.22851562 2882.94335938 C-3064.20253106 2879.35657312 -3060.46828502 2875.46647178 -3056.6875 2871.625 C-3051.65815368 2866.51492581 -3046.60681383 2861.55137508 -3041.16601562 2856.88085938 C-3037.50646407 2853.63314284 -3034.11452043 2850.11444339 -3030.6875 2846.625 C-3026.00422776 2841.85642226 -3021.26783648 2837.27524034 -3016.20117188 2832.91601562 C-3012.53260446 2829.65309 -3009.12637401 2826.12651288 -3005.6875 2822.625 C-3001.00422776 2817.85642226 -2996.26783648 2813.27524034 -2991.20117188 2808.91601562 C-2987.53260446 2805.65309 -2984.12637401 2802.12651288 -2980.6875 2798.625 C-2975.9941805 2793.84619198 -2971.24758022 2789.25344906 -2966.16992188 2784.88476562 C-2962.68478173 2781.79105994 -2959.44942574 2778.45063522 -2956.1875 2775.125 C-2952.30466293 2771.16632627 -2948.42409338 2767.27441662 -2944.21875 2763.65625 C-2939.81546818 2759.86357952 -2935.75763076 2755.76926794 -2931.6875 2751.625 C-2926.9941805 2746.84619198 -2922.24758022 2742.25344906 -2917.16992188 2737.88476562 C-2913.68478173 2734.79105994 -2910.44942574 2731.45063522 -2907.1875 2728.125 C-2903.31495648 2724.17682087 -2899.44622002 2720.29375641 -2895.25 2716.6875 C-2890.6579649 2712.73225102 -2886.43444989 2708.44442344 -2882.1875 2704.125 C-2877.34109596 2699.19589282 -2872.45752381 2694.43527789 -2867.21484375 2689.9296875 C-2863.36751943 2686.50490169 -2859.79735315 2682.79645474 -2856.1875 2679.125 C-2851.34109596 2674.19589282 -2846.45752381 2669.43527789 -2841.21484375 2664.9296875 C-2837.36751943 2661.50490169 -2833.79735315 2657.79645474 -2830.1875 2654.125 C-2821.76471773 2645.55848424 -2821.76471773 2645.55848424 -2817.28125 2641.71875 C-2812.14070459 2637.30093474 -2807.44323727 2632.44896879 -2802.6875 2627.625 C-2792.67037532 2617.46415761 -2792.67037532 2617.46415761 -2788.21875 2613.65625 C-2782.91692959 2609.11566164 -2778.08443613 2604.09184481 -2773.1875 2599.125 C-2762.67948505 2588.4669726 -2762.67948505 2588.4669726 -2758.3125 2584.75 C-2752.26272302 2579.57503802 -2746.77939256 2573.78327455 -2741.1875 2568.125 C-2738.91971143 2565.83029026 -2736.64840292 2563.53914624 -2734.375 2561.25 C-2733.87266846 2560.73937012 -2733.37033691 2560.22874023 -2732.8527832 2559.70263672 C-2730.08051409 2556.91183458 -2727.23302334 2554.26542056 -2724.25585938 2551.69335938 C-2720.29424593 2548.2626304 -2716.58556815 2544.63548185 -2712.90625 2540.90625 C-2712.24846558 2540.24467896 -2711.59068115 2539.58310791 -2710.91296387 2538.90148926 C-2708.83532726 2536.81177265 -2706.76099373 2534.71882685 -2704.6875 2532.625 C-2701.9509185 2529.861583 -2699.21087737 2527.10166278 -2696.46875 2524.34375 C-2695.85704956 2523.72375122 -2695.24534912 2523.10375244 -2694.6151123 2522.46496582 C-2691.62745904 2519.46070436 -2688.59471813 2516.5760258 -2685.37890625 2513.81640625 C-2680.28223118 2509.41164864 -2675.58328314 2504.62612967 -2670.84375 2499.84375 C-2669.86573581 2498.86131622 -2668.88741749 2497.87918512 -2667.90881348 2496.89733887 C-2664.83218605 2493.80939429 -2661.75953564 2490.71751186 -2658.6875 2487.625 C-2655.12196097 2484.03569537 -2651.55472072 2480.44811492 -2647.98320007 2476.86476135 C-2646.56991371 2475.44508843 -2645.15972889 2474.02233001 -2643.74963379 2472.5994873 C-2642.87512573 2471.72167603 -2642.00061768 2470.84386475 -2641.09960938 2469.93945312 C-2639.96332092 2468.79530945 -2639.96332092 2468.79530945 -2638.80407715 2467.62805176 C-2636.73765782 2465.65128813 -2634.64612287 2463.78041141 -2632.48010254 2461.91760254 C-2627.63179993 2457.70422005 -2623.12030532 2453.18277038 -2618.59375 2448.62890625 C-2617.17439956 2447.20731431 -2615.75504899 2445.7857225 -2614.33569336 2444.36413574 C-2612.82529531 2442.85038787 -2611.31615277 2441.33539865 -2609.80737305 2439.82003784 C-2606.64846582 2436.64749537 -2603.48564687 2433.47887154 -2600.32226562 2430.31079102 C-2593.60769501 2423.58516658 -2586.89737209 2416.85531147 -2580.1875 2410.125 C-2572.94113784 2402.85656422 -2565.69402817 2395.58888304 -2558.44200897 2388.32609081 C-2555.30420216 2385.1833332 -2552.1688422 2382.03816167 -2549.03540039 2378.89105225 C-2547.55230062 2377.40225747 -2546.06803444 2375.91463722 -2544.58325195 2374.42752075 C-2542.78233381 2372.62375851 -2540.98319149 2370.81822054 -2539.1862793 2369.01046753 C-2535.65666352 2365.4805435 -2532.12416598 2362.01511038 -2528.33093262 2358.76843262 C-2522.70131682 2353.92270394 -2517.53499372 2348.59536359 -2512.29882812 2343.33398438 C-2511.11874911 2342.15198282 -2509.93843973 2340.97021122 -2508.75791931 2339.78865051 C-2506.22966203 2337.25724828 -2503.70296286 2334.72430491 -2501.17747498 2332.19013977 C-2497.17842553 2328.17749213 -2493.17549687 2324.16872921 -2489.17199707 2320.16052246 C-2480.67419122 2311.65164766 -2472.18062416 2303.13854745 -2463.6875 2294.625 C-2454.51640223 2285.43184863 -2445.34456814 2276.23943916 -2436.16783285 2267.05191469 C-2432.19374428 2263.0728643 -2428.22210202 2259.09139341 -2424.25235748 2255.10800934 C-2421.77668791 2252.62484506 -2419.29891647 2250.14378612 -2416.82058907 2247.66327477 C-2415.67813432 2246.51895877 -2414.53653884 2245.37378411 -2413.39590263 2244.22765541 C-2403.71009612 2234.49670742 -2403.71009612 2234.49670742 -2399.26208496 2230.69958496 C-2393.22168595 2225.52714835 -2387.71280227 2219.77224915 -2382.10546875 2214.140625 C-2380.79731227 2212.8305465 -2379.48892582 2211.5206976 -2378.18032837 2210.21105957 C-2375.37542076 2207.40300441 -2372.57207112 2204.59340656 -2369.76992798 2201.78259277 C-2365.33400741 2197.33308769 -2360.89421961 2192.8874548 -2356.45385742 2188.44238281 C-2347.02876797 2179.00621879 -2337.607914 2169.56583133 -2328.1875 2160.125 C-2318.01554125 2149.93099506 -2307.84285031 2139.73772732 -2297.66526127 2129.54934311 C-2293.25630511 2125.13542103 -2288.84979504 2120.71907607 -2284.44517517 2116.30082703 C-2281.69963579 2113.5477999 -2278.95200064 2110.79687165 -2276.20380783 2108.04649353 C-2274.93557478 2106.77639712 -2273.66820208 2105.5054409 -2272.40178299 2104.23353577 C-2261.63599112 2093.42260007 -2261.63599112 2093.42260007 -2257.28503418 2089.72253418 C-2250.67376341 2084.07658459 -2244.67614126 2077.73477578 -2238.54492188 2071.58007812 C-2237.06927955 2070.10251433 -2235.59340768 2068.62517975 -2234.11732483 2067.14805603 C-2230.95064328 2063.97822421 -2227.78551952 2060.80684807 -2224.62159729 2057.63426208 C-2219.61438554 2052.61348008 -2214.60331905 2047.59655723 -2209.5916748 2042.5802002 C-2198.95398288 2031.93142783 -2188.32052298 2021.2784341 -2177.6875 2010.625 C-2166.20672405 1999.12218559 -2154.7252202 1987.62010348 -2143.23882151 1976.12290335 C-2138.26119165 1971.14030329 -2133.28600765 1966.15527787 -2128.31270599 1961.16835785 C-2125.21426086 1958.06243223 -2122.11372633 1954.95859878 -2119.01263237 1951.85531807 C-2117.57991969 1950.42073982 -2116.14806847 1948.9853006 -2114.71716499 1947.54891777 C-2112.75652378 1945.58100811 -2110.792762 1943.61626327 -2108.82824707 1941.65222168 C-2108.26947357 1941.08985322 -2107.71070006 1940.52748475 -2107.13499403 1939.94807482 C-2104.25351783 1937.07397338 -2101.30660823 1934.3278945 -2098.22783661 1931.66533661 C-2094.284884 1928.2505468 -2090.57798122 1924.65015699 -2086.90136719 1920.95239258 C-2086.21413952 1920.26531377 -2085.52691185 1919.57823496 -2084.8188591 1918.87033558 C-2082.53831426 1916.58910149 -2080.26135457 1914.30432353 -2077.984375 1912.01953125 C-2076.34124688 1910.37448211 -2074.69788957 1908.72966187 -2073.05432129 1907.08505249 C-2069.52586543 1903.55344419 -2065.99896723 1900.0202903 -2062.4732666 1896.4859314 C-2057.36759801 1891.36785313 -2052.25884384 1886.25286522 -2047.14911222 1881.13884366 C-2038.84634407 1872.82902187 -2030.54544687 1864.51733403 -2022.24609375 1856.20410156 C-2021.75029296 1855.70747296 -2021.25449218 1855.21084437 -2020.74366713 1854.69916642 C-2017.22489469 1851.17449425 -2013.70618952 1847.64975494 -2010.1875 1844.125 C-2006.16801516 1840.09858648 -2002.14849987 1836.07220336 -1998.12890625 1832.04589844 C-1997.38612088 1831.30187088 -1997.38612088 1831.30187088 -1996.62832975 1830.54281247 C-1988.35813473 1822.25890995 -1980.08595951 1813.97698754 -1971.81238174 1805.69646358 C-1966.26607762 1800.14518585 -1960.72221916 1794.59148081 -1955.18023682 1789.03588867 C-1951.72888668 1785.57706382 -1948.27545221 1782.1203258 -1944.82145691 1778.66414261 C-1943.22426435 1777.06508272 -1941.62793413 1775.46516095 -1940.032547 1773.86429977 C-1937.84856778 1771.67306522 -1935.66147917 1769.48497987 -1933.47363281 1767.29760742 C-1932.53625338 1766.35483554 -1932.53625338 1766.35483554 -1931.57993698 1765.39301777 C-1928.54832944 1762.36839857 -1925.46425797 1759.46042614 -1922.22309113 1756.66059113 C-1918.07702267 1753.07447382 -1914.19670056 1749.26805978 -1910.33190918 1745.38293457 C-1909.58342823 1744.63460248 -1908.83494727 1743.88627038 -1908.06378508 1743.11526155 C-1905.57594834 1740.62673469 -1903.09169658 1738.13466055 -1900.60742188 1735.64257812 C-1898.81651222 1733.84974776 -1897.02537361 1732.05714608 -1895.23402405 1730.26475525 C-1891.38635519 1726.41393239 -1887.54018734 1722.56162016 -1883.69532776 1718.70799255 C-1878.12821873 1713.12828232 -1872.55783111 1707.55185422 -1866.98656434 1701.97629577 C-1857.93508272 1692.91775869 -1848.88547172 1683.85735548 -1839.83740234 1674.79541016 C-1839.29674234 1674.25392234 -1838.75608233 1673.71243452 -1838.19903868 1673.15453798 C-1834.36180912 1669.31140858 -1830.52464674 1665.46821209 -1826.6875 1661.625 C-1822.30424557 1657.234817 -1817.92096074 1652.84466436 -1813.53759766 1648.45458984 C-1812.72760489 1647.64335489 -1812.72760489 1647.64335489 -1811.90124863 1646.81573135 C-1802.88524355 1637.7860224 -1793.86726108 1628.75829076 -1784.84787607 1619.73195791 C-1779.29313768 1614.17274951 -1773.7401794 1608.6117744 -1768.18953812 1603.04847515 C-1763.93420195 1598.78368779 -1759.67630516 1594.5214664 -1755.41747856 1590.26016426 C-1753.67515654 1588.51597365 -1751.9336975 1586.77092048 -1750.19317818 1585.02493095 C-1747.81213696 1582.63664389 -1745.42799442 1580.25149471 -1743.04309082 1577.86706543 C-1742.35980697 1577.18018662 -1741.67652312 1576.49330781 -1740.9725337 1575.78561449 C-1737.80531805 1572.62511149 -1734.59629899 1569.570611 -1731.20885468 1566.64635468 C-1726.94421144 1562.96197499 -1722.96402791 1559.03494135 -1718.99023438 1555.04125977 C-1718.20500145 1554.2561757 -1717.41976852 1553.47109163 -1716.61074066 1552.66221714 C-1713.9985287 1550.04931459 -1711.38990162 1547.43286298 -1708.78125 1544.81640625 C-1706.90167103 1542.93490674 -1705.0218903 1541.05361093 -1703.1418457 1539.1725769 C-1699.10251049 1535.13036463 -1695.06495312 1531.08638373 -1691.02856445 1527.04122925 C-1685.18453162 1521.18459916 -1679.33722361 1515.33124762 -1673.48903561 1509.47876704 C-1663.98832584 1499.97100084 -1654.4894865 1490.46136848 -1644.9921875 1480.95019531 C-1644.42461196 1480.38179196 -1643.85703642 1479.81338861 -1643.27226162 1479.22776091 C-1639.24395777 1475.19355717 -1635.21572107 1471.15928639 -1631.1875 1467.125 C-1626.58598383 1462.5165553 -1621.98443727 1457.90814095 -1617.3828125 1453.29980469 C-1616.81593436 1452.73209842 -1616.24905622 1452.16439216 -1615.66499996 1451.57948267 C-1606.20150898 1442.10228974 -1596.7360421 1432.62707264 -1587.26917267 1423.15325451 C-1581.4380498 1417.31766052 -1575.60870733 1411.48029891 -1569.78167915 1405.64061618 C-1565.78770787 1401.63819706 -1561.791951 1397.63756645 -1557.79480553 1393.63831735 C-1555.49176211 1391.33393381 -1553.18982689 1389.0284621 -1550.88955688 1386.72130966 C-1548.3902788 1384.21479069 -1545.8879036 1381.71140368 -1543.38476562 1379.20874023 C-1542.66646324 1378.48684289 -1541.94816086 1377.76494555 -1541.20809174 1377.02117252 C-1537.32448834 1373.14542052 -1533.33278585 1369.47636135 -1529.1804142 1365.89164829 C-1525.66728583 1362.77738365 -1522.37641024 1359.44418422 -1519.06616211 1356.1171875 C-1518.28909629 1355.34027054 -1517.51203047 1354.56335358 -1516.7114172 1353.76289368 C-1514.12684418 1351.17763017 -1511.54585606 1348.58881798 -1508.96484375 1346 C-1507.10496898 1344.13820466 -1505.24489243 1342.27661304 -1503.384552 1340.4152832 C-1499.38777853 1336.41563284 -1495.39278288 1332.41421397 -1491.3989563 1328.41162109 C-1485.61646207 1322.61652876 -1479.83069194 1316.82471576 -1474.04404199 1311.03377342 C-1464.6431607 1301.62583591 -1455.24414989 1292.21603225 -1445.84667969 1282.8046875 C-1445.28508538 1282.24226538 -1444.72349107 1281.67984325 -1444.14487875 1281.10037804 C-1440.15903585 1277.10863526 -1436.17326011 1273.11682543 -1432.1875 1269.125 C-1427.63448644 1264.5650579 -1423.08144248 1260.00514615 -1418.52832031 1255.4453125 C-1417.68696409 1254.60271409 -1417.68696409 1254.60271409 -1416.82861078 1253.74309349 C-1407.4645611 1244.36534145 -1398.0985352 1234.98956556 -1388.73110676 1225.6151886 C-1382.96140267 1219.84101363 -1377.19347892 1214.06507122 -1371.42787004 1208.28680706 C-1367.4759486 1204.32643723 -1363.5222411 1200.36785642 -1359.56714511 1196.41065693 C-1357.28840479 1194.13057661 -1355.01077254 1191.84940845 -1352.73480606 1189.56655884 C-1350.26180282 1187.08631365 -1347.78570156 1184.60920169 -1345.30883789 1182.1328125 C-1344.5983174 1181.41869705 -1343.88779692 1180.7045816 -1343.15574551 1179.96882629 C-1339.28231078 1176.10330348 -1335.29900036 1172.44447859 -1331.15766525 1168.86889935 C-1327.79722463 1165.89439241 -1324.647568 1162.7156271 -1321.48376465 1159.53479004 C-1320.7516179 1158.80279215 -1320.01947116 1158.07079427 -1319.26513815 1157.31661463 C-1316.83257927 1154.88336584 -1314.40360541 1152.44657063 -1311.97460938 1150.00976562 C-1310.22310812 1148.25634359 -1308.47137786 1146.50315029 -1306.71943665 1144.75016785 C-1302.95689121 1140.9844688 -1299.1958466 1137.21728046 -1295.43611145 1133.44877625 C-1289.99207973 1127.99214144 -1284.5447678 1122.53879047 -1279.09657711 1117.08630854 C-1270.24475243 1108.22742886 -1261.39479846 1099.36668307 -1252.54638672 1090.50439453 C-1252.01768917 1089.97486917 -1251.48899162 1089.44534381 -1250.94427294 1088.89977223 C-1247.19196527 1085.14156475 -1243.43972482 1081.38329018 -1239.6875 1077.625 C-1235.4012508 1073.33182219 -1231.11497118 1069.03867476 -1226.82861328 1064.74560547 C-1226.03654249 1063.95229249 -1226.03654249 1063.95229249 -1225.22847027 1063.14295298 C-1216.41134783 1054.31212578 -1207.59224731 1045.48327658 -1198.77174425 1036.65582609 C-1193.33984338 1031.21945574 -1187.90972249 1025.78131913 -1182.48191988 1020.34085691 C-1178.32058911 1016.17007345 -1174.15669485 1012.00185581 -1169.99187279 1007.83455849 C-1168.28825197 1006.12906939 -1166.58549397 1004.42271791 -1164.88367653 1002.71542931 C-1162.55518511 1000.37968966 -1160.22359034 998.04709074 -1157.89123535 995.71520996 C-1157.2235153 995.04389494 -1156.55579524 994.37257993 -1155.86784124 993.68092203 C-1152.08222552 989.90350579 -1148.17664019 986.33798522 -1144.13075304 982.84198713 C-1141.017782 980.09148006 -1138.09469809 977.1633324 -1135.16711426 974.21813965 C-1134.50847146 973.55964571 -1133.84982865 972.90115176 -1133.17122698 972.22270346 C-1130.98741828 970.03820597 -1128.80719484 967.85016645 -1126.62695312 965.66210938 C-1125.05278974 964.08602479 -1123.47839702 962.51016923 -1121.90379333 960.93452454 C-1118.5243034 957.551883 -1115.14637118 954.16769637 -1111.76963806 950.78230286 C-1106.4263734 945.4254749 -1101.07926009 940.07249973 -1095.73156738 934.72009277 C-1088.23189063 927.21309319 -1080.73360755 919.70470526 -1073.23681641 912.19482422 C-1072.76194992 911.71912992 -1072.28708344 911.24343563 -1071.79782706 910.75332636 C-1068.42766796 907.37726757 -1065.05757615 904.0011416 -1061.6875 900.625 C-1057.8377743 896.76834557 -1053.98801814 892.91172156 -1050.13818359 889.05517578 C-1049.66390232 888.58006638 -1049.18962104 888.10495698 -1048.70096761 887.61545032 C-1040.77881744 879.67959074 -1032.85466485 871.74573341 -1024.92915106 863.8132329 C-1019.61700698 858.49611653 -1014.30730865 853.1765736 -1008.99948883 847.85514069 C-1005.69345244 844.54162736 -1002.38532977 841.23020292 -999.0766468 837.9193325 C-997.54718127 836.38800033 -996.01857775 834.85580662 -994.49091911 833.32267189 C-992.39890245 831.22339483 -990.30377208 829.127273 -988.20788574 827.03186035 C-987.61020276 826.4305824 -987.01251977 825.82930446 -986.39672518 825.20980597 C-982.76506569 821.58687502 -978.99645451 818.18512015 -975.117805 814.8290391 C-972.22217518 812.27282834 -969.49572062 809.56501654 -966.77453613 806.82556152 C-966.18123017 806.23240442 -965.5879242 805.63924731 -964.97663927 805.02811575 C-963.01394151 803.06473045 -961.05482931 801.09780799 -959.09570312 799.13085938 C-957.67917344 797.71240804 -956.26241408 796.29418605 -954.84544373 794.87617493 C-951.80644714 791.83402896 -948.76900841 788.7903392 -945.73277283 785.74543762 C-940.92719306 780.92628296 -936.11775449 776.1109917 -931.30773926 771.29626465 C-921.09802477 761.07547163 -910.89254343 750.85045657 -900.6875 740.625 C-889.66865942 729.58411845 -878.64908955 718.54397079 -867.62462378 707.50870562 C-862.84770236 702.72681539 -858.07322687 697.94250062 -853.30063629 693.15628815 C-850.32674602 690.17491503 -847.3507643 687.19563628 -844.37422371 684.21690941 C-842.99956269 682.84038354 -841.62576278 681.46299709 -840.25291252 680.0846653 C-828.5304208 668.3168624 -828.5304208 668.3168624 -822.29351044 663.0051651 C-816.91576538 658.20412119 -811.91550003 652.97218728 -806.83007812 647.86523438 C-805.49236531 646.52559965 -804.15442262 645.18619445 -802.81626892 643.84700012 C-799.94751889 640.97510201 -797.08032678 638.10166088 -794.21434021 635.227005 C-789.67760342 630.67668648 -785.13700183 626.1302376 -780.5958252 621.58435059 C-770.95674713 611.93419681 -761.32190388 602.27982 -751.6875 592.625 C-741.28457344 582.20002875 -730.88091552 571.77579375 -720.47236013 561.35644197 C-715.96304984 556.84216493 -711.4561856 552.32546453 -706.95121002 547.80686188 C-704.14339308 544.99155861 -701.33348163 542.17835292 -698.52301216 539.36569786 C-697.22575331 538.06657522 -695.92935503 536.76659256 -694.63390923 535.465662 C-688.94366788 529.75209958 -683.27408941 524.08257112 -677.13452911 518.84618378 C-672.85442455 515.06254927 -668.885973 510.9438308 -664.859375 506.89453125 C-663.84678202 505.88001483 -662.83395796 504.86572899 -661.82092285 503.85165405 C-659.65443842 501.68202906 -657.48951234 499.51086561 -655.32580566 497.33847046 C-651.89805192 493.89709532 -648.46639861 490.45962614 -645.03417969 487.02270508 C-637.74897425 479.72644018 -630.46801319 472.42594657 -623.1875 465.125 C-615.3252219 457.24065575 -607.46220047 449.35706136 -599.59427261 441.47835445 C-596.18885602 438.06798295 -592.78588608 434.65519506 -589.38482666 431.24047852 C-587.26206513 429.11021048 -585.13719137 426.9820587 -583.01176453 424.85445023 C-582.03378866 423.87461667 -581.05667019 422.8939264 -580.08052063 421.91227341 C-575.19829287 417.00340989 -570.26966952 412.23941202 -565.01702881 407.72868347 C-562.05940175 405.13615931 -559.29839689 402.35921377 -556.53125 399.56640625 C-555.61243042 398.64539627 -555.61243042 398.64539627 -554.67504883 397.70578003 C-553.36011989 396.38707848 -552.04634605 395.06722428 -550.73364258 393.74630737 C-548.64972167 391.64948784 -546.56257491 389.55592634 -544.47460938 387.46313477 C-540.04274306 383.01990518 -535.6148267 378.57275238 -531.1875 374.125 C-526.05240934 368.96621836 -520.91566349 363.80910748 -515.7746582 358.65621948 C-513.72985237 356.60498551 -511.68810936 354.55073709 -509.64648438 352.49633789 C-504.26531643 347.09417408 -498.91290712 341.75100906 -493.09838867 336.81103516 C-488.81626276 333.03278531 -484.86180097 328.89812512 -480.84375 324.84375 C-479.86573581 323.86131622 -478.88741749 322.87918512 -477.90881348 321.89733887 C-474.83218605 318.80939429 -471.75953564 315.71751186 -468.6875 312.625 C-465.12196097 309.03569537 -461.55472072 305.44811492 -457.98320007 301.86476135 C-456.56991371 300.44508843 -455.15972889 299.02233001 -453.74963379 297.5994873 C-449.32803084 293.16118292 -444.85038016 288.88894261 -440.09680176 284.80944824 C-436.6615065 281.7787188 -433.46827054 278.50769981 -430.25 275.25 C-429.52562744 274.52184082 -428.80125488 273.79368164 -428.05493164 273.04345703 C-425.76331697 270.73974354 -423.47499348 268.43280526 -421.1875 266.125 C-418.16964919 263.08035221 -415.14836584 260.03917033 -412.125 257 C-411.44767822 256.31437988 -410.77035645 255.62875977 -410.07250977 254.92236328 C-406.21043005 251.04078532 -402.23275386 247.37636123 -398.08740234 243.80004883 C-395.19353834 241.24867374 -392.48670694 238.52953519 -389.78125 235.78125 C-389.21224976 235.20846313 -388.64324951 234.63567627 -388.05700684 234.04553223 C-386.26467018 232.24114749 -384.47565684 230.4335264 -382.6875 228.625 C-369.40599304 215.19219842 -369.40599304 215.19219842 -363.21289062 209.92773438 C-358.49183847 205.72567927 -354.12510416 201.1229016 -349.6875 196.625 C-343.99468873 190.85483574 -338.3261333 185.14267338 -332.15820312 179.87304688 C-328.14974563 176.31747754 -324.44443246 172.44223635 -320.6875 168.625 C-315.65815368 163.51492581 -310.60681383 158.55137508 -305.16601562 153.88085938 C-301.50646407 150.63314284 -298.11452043 147.11444339 -294.6875 143.625 C-289.97408234 138.82572774 -285.20706419 134.20986349 -280.10742188 129.82226562 C-276.98952793 127.06595857 -274.09741665 124.09746895 -271.1875 121.125 C-267.02349657 116.91262267 -262.83440482 112.85238408 -258.30859375 109.02734375 C-254.71089444 105.80067789 -251.36371145 102.32023768 -247.96679688 98.88476562 C-244.52697446 95.42097232 -241.00187244 92.15367516 -237.27734375 88.99609375 C-233.91407906 85.98487172 -230.78493632 82.74225871 -227.61352539 79.53149414 C-224.26151352 76.15402798 -220.80526536 72.98243526 -217.1796875 69.8984375 C-213.84566175 66.93050085 -210.76489515 63.70944731 -207.62890625 60.53515625 C-204.91547273 57.85645468 -202.07972977 55.37891882 -199.18359375 52.90234375 C-196.92617374 50.89231223 -194.81014287 48.77667047 -192.6875 46.625 C-189.34614763 43.24373387 -185.91828089 40.05897434 -182.3046875 36.97265625 C-180.82277449 35.67940006 -179.37166436 34.35038254 -177.9453125 32.99609375 C-132.45042309 -10.01854468 -56.27600791 -44.29864159 0 0 Z M-818.1875 1403.125 C-818.1875 1403.455 -818.1875 1403.785 -818.1875 1404.125 C-816.5375 1404.125 -814.8875 1404.125 -813.1875 1404.125 C-813.1875 1403.795 -813.1875 1403.465 -813.1875 1403.125 C-814.8375 1403.125 -816.4875 1403.125 -818.1875 1403.125 Z M-865.40234375 1418.90625 C-876.03780849 1432.12494578 -876.37667361 1450.36699243 -876.28056335 1466.56686401 C-876.27694186 1467.74594231 -876.27332036 1468.92502062 -876.26958913 1470.13982856 C-876.21846195 1481.55402437 -875.99871636 1492.96400017 -875.77005899 1504.37572646 C-875.23912121 1531.67048701 -875.07746642 1558.96174049 -875.0456543 1586.26123047 C-875.04453459 1587.22088444 -875.04341489 1588.18053841 -875.04226126 1589.16927281 C-875.03109561 1599.24507076 -875.02442007 1609.32086915 -875.0201601 1619.3966722 C-875.01422338 1633.43000058 -874.99772306 1647.46329808 -874.97749329 1661.49661255 C-874.97432999 1663.73065371 -874.97117469 1665.96469489 -874.96802729 1668.19873607 C-874.96326456 1671.57784865 -874.95850112 1674.95696123 -874.95371684 1678.33607378 C-874.93595713 1690.92831183 -874.91963396 1703.52055144 -874.90454102 1716.11279297 C-874.90316514 1717.25781836 -874.90178927 1718.40284375 -874.90037171 1719.58256687 C-874.87828917 1738.2690094 -874.86763925 1756.95544508 -874.86017027 1775.64189838 C-874.852093 1794.96266065 -874.82881306 1814.28336529 -874.7922166 1833.60409462 C-874.7702989 1845.45744543 -874.76049361 1857.31067757 -874.76671693 1869.16404761 C-874.76989704 1877.25675406 -874.75852532 1885.34935862 -874.73582252 1893.44203351 C-874.72320431 1898.0985822 -874.71692636 1902.75490365 -874.72823906 1907.41146088 C-874.73848143 1911.68199762 -874.73000824 1915.95209492 -874.7073761 1920.22258021 C-874.70242461 1921.75666102 -874.70402665 1923.29078207 -874.71330877 1924.8248428 C-874.78937278 1938.48098851 -872.86733799 1951.83534754 -866 1963.875 C-865.49629883 1964.83212891 -865.49629883 1964.83212891 -864.98242188 1965.80859375 C-864.25909755 1967.1305761 -863.49081052 1968.42895382 -862.67964929 1969.69893527 C-861.1875 1972.125 -861.1875 1972.125 -859.72116905 1975.12193608 C-857.24956116 1979.39876175 -854.98669644 1983.19440658 -850.10517816 1984.81726831 C-843.59055175 1985.9688702 -836.964921 1985.68101849 -830.37693787 1985.5680542 C-828.1170117 1985.5732885 -825.85709263 1985.58379809 -823.59721237 1985.59912419 C-817.39135315 1985.6259552 -811.18797948 1985.57796752 -804.98243701 1985.51778746 C-798.97675237 1985.47129658 -792.97133438 1985.48131461 -786.96554217 1985.48996956 C-774.68301282 1985.50572151 -762.40125923 1985.46569809 -750.11895561 1985.39376068 C-737.9600077 1985.32272848 -725.80138297 1985.27656398 -713.64222908 1985.26352692 C-712.8859024 1985.26270204 -712.12957571 1985.26187717 -711.35033003 1985.26102729 C-707.50924643 1985.25696723 -703.66816255 1985.25335065 -699.82707835 1985.24990478 C-672.62855829 1985.22470731 -645.43046016 1985.14388048 -618.23217773 1985.03027344 C-591.81130211 1984.92004109 -565.39054198 1984.83504735 -538.96948242 1984.78417969 C-538.15491163 1984.78260137 -537.34034084 1984.78102306 -536.50108608 1984.77939692 C-528.32074715 1984.76357452 -520.14040733 1984.74826478 -511.96006674 1984.73333061 C-495.29613065 1984.70289697 -478.6322021 1984.66904194 -461.96827698 1984.63311768 C-460.81903496 1984.63064646 -460.81903496 1984.63064646 -459.64657594 1984.62812531 C-408.49336972 1984.51773823 -357.34041805 1984.32667536 -306.1875 1984.125 C-306.1875 1976.535 -306.1875 1968.945 -306.1875 1961.125 C-308.06395706 1961.11469254 -309.94041412 1961.10438507 -311.87373352 1961.09376526 C-362.04577197 1960.81769836 -412.21773091 1960.52923372 -462.38961411 1960.22621822 C-471.29817148 1960.17241713 -480.20672963 1960.11879993 -489.11529541 1960.06640625 C-596.95594482 1959.43160851 -704.74897405 1958.03063235 -857.1875 1953.125 C-857.18242432 1951.91980713 -857.17734863 1950.71461426 -857.17211914 1949.47290039 C-857.14224158 1939.14369768 -857.24206724 1928.82688891 -857.48806763 1918.5007782 C-858.07884723 1893.1930227 -858.41157018 1867.88308266 -858.69140625 1842.5703125 C-858.70214739 1841.60764882 -858.71288853 1840.64498515 -858.72395515 1839.65314984 C-859.09797094 1806.0387728 -859.32586896 1772.4247017 -859.46875 1738.80859375 C-859.47595908 1737.11954284 -859.47595908 1737.11954284 -859.4833138 1735.3963697 C-859.5665493 1715.78685439 -859.64050687 1696.17730443 -859.71356201 1676.56774902 C-859.77377734 1660.43967986 -859.83715121 1644.31162745 -859.90625 1628.18359375 C-859.91096557 1627.07294147 -859.91568115 1625.96228918 -859.92053962 1624.81798077 C-860.07851265 1587.93880402 -860.45040526 1551.0671688 -861.02889729 1514.1923418 C-861.21584505 1501.96199388 -861.31284873 1489.73155762 -861.375 1477.5 C-861.38013044 1476.59924146 -861.38526089 1475.69848291 -861.3905468 1474.77042866 C-861.39507425 1473.91030768 -861.39960171 1473.05018671 -861.40426636 1472.16400146 C-861.4083293 1471.40919872 -861.41239223 1470.65439598 -861.41657829 1469.87672043 C-861.42834645 1451.54657855 -859.68186458 1431.44039062 -846.6015625 1417.42578125 C-838.53191837 1409.90547909 -828.79416474 1407.16985856 -818.1875 1405.125 C-818.1875 1404.795 -818.1875 1404.465 -818.1875 1404.125 C-835.6731188 1403.2879225 -852.83067284 1405.5097975 -865.40234375 1418.90625 Z M-727.1875 1405.125 C-727.1875 1405.455 -727.1875 1405.785 -727.1875 1406.125 C-719.2675 1406.125 -711.3475 1406.125 -703.1875 1406.125 C-703.1875 1405.795 -703.1875 1405.465 -703.1875 1405.125 C-711.1075 1405.125 -719.0275 1405.125 -727.1875 1405.125 Z M-607.1875 1405.125 C-607.1875 1405.455 -607.1875 1405.785 -607.1875 1406.125 C-574.8475 1406.125 -542.5075 1406.125 -509.1875 1406.125 C-509.1875 1405.795 -509.1875 1405.465 -509.1875 1405.125 C-541.5275 1405.125 -573.8675 1405.125 -607.1875 1405.125 Z M-659.1875 1406.125 C-659.1875 1406.455 -659.1875 1406.785 -659.1875 1407.125 C-643.0175 1407.125 -626.8475 1407.125 -610.1875 1407.125 C-610.1875 1406.795 -610.1875 1406.465 -610.1875 1406.125 C-626.3575 1406.125 -642.5275 1406.125 -659.1875 1406.125 Z M-1308.1875 2899.125 C-1308.34605469 2899.8984375 -1308.50460937 2900.671875 -1308.66796875 2901.46875 C-1310.70156309 2910.54689489 -1313.56298022 2917.8581537 -1320.97265625 2923.80859375 C-1330.21951673 2929.30452317 -1341.50437647 2930.29595981 -1352.03552818 2930.23522377 C-1352.78687892 2930.23498884 -1353.53822966 2930.2347539 -1354.3123486 2930.23451185 C-1356.82051866 2930.23249236 -1359.32860838 2930.22325107 -1361.83676147 2930.21401978 C-1363.65751793 2930.21103972 -1365.47827516 2930.20850371 -1367.29903281 2930.20637262 C-1372.29639269 2930.19922433 -1377.29371832 2930.18572894 -1382.2910614 2930.17118168 C-1387.68508723 2930.15658141 -1393.079123 2930.14784226 -1398.47315979 2930.13835144 C-1409.0473581 2930.11879441 -1419.62153659 2930.09373845 -1430.19571827 2930.0667484 C-1438.80929433 2930.04487127 -1447.42287288 2930.02502922 -1456.03645706 2930.00663376 C-1457.26383325 2930.00401163 -1458.49120945 2930.0013895 -1459.75577886 2929.99868792 C-1462.24982486 2929.99336985 -1464.74387088 2929.98805707 -1467.2379169 2929.98274951 C-1489.98003079 2929.93413184 -1512.72212812 2929.87984723 -1535.46422309 2929.82313418 C-1556.13597105 2929.77161823 -1576.80772312 2929.72499377 -1597.47949219 2929.68261719 C-1620.75414197 2929.63490109 -1644.02878212 2929.58420759 -1667.30341494 2929.52879179 C-1669.79854559 2929.52285749 -1672.29367625 2929.51692614 -1674.78880692 2929.51099777 C-1676.01609439 2929.50807939 -1677.24338187 2929.505161 -1678.50785988 2929.50215418 C-1687.07483097 2929.48197416 -1695.64180492 2929.46382679 -1704.2087822 2929.44649124 C-1714.70401335 2929.4251884 -1725.1992307 2929.40051497 -1735.6944444 2929.37184478 C-1741.03020355 2929.3573449 -1746.36595561 2929.34414897 -1751.70172691 2929.33503914 C-1763.93352617 2929.31334723 -1776.16451573 2929.26067008 -1788.39585012 2929.14954287 C-1790.29760277 2929.13282356 -1792.19936809 2929.1175 -1794.10114199 2929.10340399 C-1799.94998004 2929.0600057 -1805.79790773 2928.99588702 -1811.64615758 2928.90170018 C-1813.46466041 2928.87510526 -1815.28326952 2928.85486239 -1817.1019185 2928.84160633 C-1834.78111618 2928.7015542 -1847.15673432 2923.94030792 -1860.1875 2911.5625 C-1863.03618275 2908.54374664 -1865.18267206 2905.22282889 -1867.2421875 2901.62890625 C-1867.55414062 2901.13261719 -1867.86609375 2900.63632813 -1868.1875 2900.125 C-1868.5175 2900.125 -1868.8475 2900.125 -1869.1875 2900.125 C-1869.3049875 2903.45803003 -1869.37517324 2906.79051837 -1869.4375 2910.125 C-1869.47101563 2911.05957031 -1869.50453125 2911.99414062 -1869.5390625 2912.95703125 C-1869.68265501 2923.22389602 -1865.77728076 2929.22196423 -1858.87890625 2936.59765625 C-1842.02096003 2952.4279773 -1825.36705524 2953.26915667 -1803.21463013 2953.28321838 C-1801.66056535 2953.28779816 -1800.10650178 2953.29280018 -1798.55243957 2953.29818195 C-1794.32294491 2953.31162501 -1790.09345817 2953.31914168 -1785.86394787 2953.32560861 C-1781.28168005 2953.33368019 -1776.69942836 2953.34735969 -1772.11717224 2953.36032104 C-1763.13575366 2953.38485861 -1754.15433094 2953.40430653 -1745.1728967 2953.42207379 C-1734.62427963 2953.44316297 -1724.07567783 2953.46959006 -1713.52707361 2953.49624526 C-1694.60008831 2953.54391236 -1675.67309551 2953.58712774 -1656.74609375 2953.62768555 C-1638.58951101 2953.66659934 -1620.43293672 2953.70802111 -1602.27636719 2953.75268555 C-1601.16868764 2953.75540982 -1600.0610081 2953.75813409 -1598.91976251 2953.76094092 C-1594.46026587 2953.77191466 -1590.00076925 2953.78289376 -1585.54127265 2953.79388306 C-1566.94468426 2953.83963584 -1548.34809088 2953.883306 -1529.75149679 2953.9266727 C-1525.59033234 2953.93637924 -1521.42916807 2953.94615752 -1517.26800394 2953.95600247 C-1512.23594244 2953.9678995 -1507.20388065 2953.97965885 -1502.17181854 2953.99129411 C-1500.18964639 2953.99588254 -1498.20747431 2954.00050009 -1496.22530229 2954.00514696 C-1485.61221112 2954.02991102 -1474.99913245 2954.05132801 -1464.38601875 2954.06345463 C-1460.61657827 2954.06799249 -1456.84713799 2954.07268452 -1453.07769775 2954.0774231 C-1451.6844634 2954.07907747 -1451.6844634 2954.07907747 -1450.26308291 2954.08076527 C-1438.37714804 2954.09594507 -1426.49176772 2954.140347 -1414.60606972 2954.21749641 C-1406.33067735 2954.27112147 -1398.0552859 2954.31211862 -1389.77978357 2954.34454415 C-1383.94166388 2954.36843416 -1378.10400835 2954.40928581 -1372.26609629 2954.46352586 C-1368.66753368 2954.49259675 -1365.06905881 2954.50449052 -1361.47039238 2954.51176627 C-1359.8216383 2954.51848656 -1358.17289347 2954.53205902 -1356.52426514 2954.55350225 C-1343.80683065 2954.71344701 -1328.69283526 2954.48333358 -1318.65625 2945.61328125 C-1318.1715625 2945.12214844 -1317.686875 2944.63101563 -1317.1875 2944.125 C-1316.445 2943.3825 -1315.7025 2942.64 -1314.9375 2941.875 C-1306.95096376 2929.32472876 -1306.6760422 2913.61630434 -1307.1875 2899.125 C-1307.5175 2899.125 -1307.8475 2899.125 -1308.1875 2899.125 Z " fill="#030303" transform="translate(3215.1875,19.875)"/>
<path d="M0 0 C185.79 0 371.58 0 563 0 C563.226875 89.5125 563.45375 179.025 563.6875 271.25 C563.80677856 313.68706543 563.80677856 313.68706543 563.9284668 356.98144531 C564.00549316 391.45849609 564.00549316 391.45849609 564.03767395 407.58514404 C564.06280858 419.62208257 564.09797382 431.65895145 564.13799074 443.69584825 C564.17855603 455.97189416 564.20779091 468.24792857 564.22615354 480.52402799 C564.2364216 487.18602209 564.25173653 493.84793035 564.28033006 500.50987864 C564.30609862 506.53454566 564.31792473 512.55907302 564.31864929 518.58379364 C564.32137063 520.76118931 564.32920368 522.93858591 564.34268916 525.11594152 C564.51507485 554.1500203 564.51507485 554.1500203 554.35546875 565.90234375 C545.76646845 574.45517984 532.89728762 576.10290311 521.22506487 576.12217987 C520.54094416 576.11823435 519.85682346 576.11428884 519.15197182 576.11022377 C518.40062108 576.10998884 517.64927034 576.1097539 516.8751514 576.10951185 C514.36698134 576.10749236 511.85889162 576.09825107 509.35073853 576.08901978 C507.52998207 576.08603972 505.70922484 576.08350371 503.88846719 576.08137262 C498.89110731 576.07422433 493.89378168 576.06072894 488.8964386 576.04618168 C483.50241277 576.03158141 478.108377 576.02284226 472.71434021 576.01335144 C462.1401419 575.99379441 451.56596341 575.96873845 440.99178173 575.9417484 C432.37820567 575.91987127 423.76462712 575.90002922 415.15104294 575.88163376 C413.92366675 575.87901163 412.69629055 575.8763895 411.43172114 575.87368792 C408.93767514 575.86836985 406.44362912 575.86305707 403.9495831 575.85774951 C381.20746921 575.80913184 358.46537188 575.75484723 335.72327691 575.69813418 C315.05152895 575.64661823 294.37977688 575.59999377 273.70800781 575.55761719 C250.43335803 575.50990109 227.15871788 575.45920759 203.88408506 575.40379179 C201.38895441 575.39785749 198.89382375 575.39192614 196.39869308 575.38599777 C195.17140561 575.38307939 193.94411813 575.380161 192.67964012 575.37715418 C184.11266903 575.35697416 175.54569508 575.33882679 166.9787178 575.32149124 C156.48348665 575.3001884 145.9882693 575.27551497 135.4930556 575.24684478 C130.15729645 575.2323449 124.82154439 575.21914897 119.48577309 575.21003914 C107.25397383 575.18834723 95.02298427 575.13567008 82.79164988 575.02454287 C80.88989723 575.00782356 78.98813191 574.9925 77.08635801 574.97840399 C71.23751996 574.9350057 65.38959227 574.87088702 59.54134242 574.77670018 C57.72283959 574.75010526 55.90423048 574.72986239 54.0855815 574.71660633 C36.07210401 574.57390608 23.70625407 569.57065247 10.5 556.9375 C4.72583951 550.82152875 0.95983126 544.94953814 0.79622746 536.42592621 C0.77659872 535.49706573 0.75696998 534.56820524 0.73674643 533.61119747 C0.72033901 532.58365636 0.70393159 531.55611525 0.68702698 530.49743652 C0.66646598 529.38801476 0.64590499 528.27859301 0.62472093 527.13555241 C0.56940134 523.98920206 0.51946219 520.84283069 0.47341435 517.6963321 C0.44318364 515.63345785 0.41158768 513.57060723 0.37993729 511.50775433 C-0.29086543 466.89080594 -0.1289562 422.26478675 -0.10339781 377.64418167 C-0.09603707 364.49162823 -0.09538758 351.33907936 -0.09460449 338.18652344 C-0.08939918 303.62434769 -0.07543803 269.06217371 -0.0625 234.5 C-0.041875 157.115 -0.02125 79.73 0 0 Z " fill="#F2F2F3" transform="translate(1344,2375)"/>
<path d="M0 0 C0.66088623 0.40001221 1.32177246 0.80002441 2.00268555 1.2121582 C2.696604 1.65003662 3.39052246 2.08791504 4.10546875 2.5390625 C5.60771933 3.45760977 7.11033464 4.37556078 8.61328125 5.29296875 C9.38188477 5.76750488 10.15048828 6.24204102 10.94238281 6.73095703 C13.26723728 8.14837454 15.61271622 9.52082756 17.97265625 10.87890625 C18.72828857 11.31477051 19.4839209 11.75063477 20.26245117 12.19970703 C21.70102222 13.02785525 23.14119847 13.8532237 24.58325195 14.67529297 C30.59318733 18.17003778 36.23987901 21.67026125 39.29296875 28.1640625 C39.59250227 31.14724325 39.72957269 33.92327185 39.72379208 36.90585804 C39.73382614 37.78577766 39.74386021 38.66569729 39.75419834 39.57228114 C39.78407405 42.51739466 39.79269528 45.46217802 39.80125427 48.40742493 C39.81795617 50.51199568 39.83589603 52.61655691 39.85498488 54.72110736 C39.9028644 60.44239541 39.93176933 66.16363985 39.9568835 71.88506745 C39.98037599 76.72356838 40.01459655 81.56196961 40.04883273 86.40040461 C40.16338452 102.65483688 40.236421 118.9093345 40.29296875 135.1640625 C40.29694619 136.30331427 40.30092362 137.44256603 40.30502158 138.61634058 C40.40749274 168.70609947 40.41629434 198.79572098 40.39650938 228.88561706 C40.3890784 240.48651991 40.3878335 252.08742174 40.38671082 263.68832663 C40.38456275 284.34894187 40.37802307 305.00955299 40.3684082 325.67016602 C40.35912058 345.64933248 40.35209659 365.6284978 40.34790039 385.60766602 C40.34763767 386.85500171 40.34737494 388.10233741 40.34710426 389.38747116 C40.34579851 395.6497117 40.34453497 401.91195224 40.34329236 408.17419279 C40.33305311 459.50415219 40.31555686 510.83410714 40.29296875 562.1640625 C18.93040891 562.17298224 -2.4321506 562.17951097 -23.79471195 562.18349206 C-33.72271023 562.18539298 -43.65070731 562.18797432 -53.57870483 562.19235229 C-92.71073036 562.20924138 -131.84211473 562.21484054 -170.97363281 561.99267578 C-171.66376428 561.98878537 -172.35389576 561.98489497 -173.0649403 561.98088667 C-275.1852369 561.40075197 -377.28015434 559.621158 -479.34720612 556.24190521 C-481.60992022 556.16726587 -483.87267195 556.09388911 -486.13543701 556.02081299 C-489.88739132 555.89901314 -493.63902662 555.76906402 -497.390625 555.63671875 C-498.43042007 555.60291611 -499.47021515 555.56911346 -500.54151917 555.5342865 C-501.46553024 555.4998494 -502.38954132 555.46541229 -503.34155273 555.42993164 C-504.12271957 555.40242325 -504.90388641 555.37491486 -505.70872498 555.34657288 C-507.70703125 555.1640625 -507.70703125 555.1640625 -510.70703125 554.1640625 C-512.7343144 517.3605084 -512.79467284 480.45985288 -513.20703125 443.609375 C-513.21785925 442.64671132 -513.22868725 441.68404765 -513.23984337 440.69221234 C-513.616237 407.07782407 -513.84567574 373.46380309 -513.98828125 339.84765625 C-513.99308313 338.72162231 -513.99788502 337.59558837 -514.00283241 336.4354322 C-514.08604195 316.82591674 -514.16003812 297.21636698 -514.23309326 277.60681152 C-514.29330859 261.47874236 -514.35668246 245.35068995 -514.42578125 229.22265625 C-514.43049682 228.11200397 -514.4352124 227.00135168 -514.44007087 225.85704327 C-514.5980439 188.97786652 -514.96993651 152.1062313 -515.54842854 115.2314043 C-515.7353763 103.00105638 -515.83237998 90.77062012 -515.89453125 78.5390625 C-515.89966169 77.63830396 -515.90479214 76.73754541 -515.91007805 75.80949116 C-515.91686923 74.5193097 -515.91686923 74.5193097 -515.92379761 73.20306396 C-515.92786055 72.44826122 -515.93192348 71.69345848 -515.93610954 70.91578293 C-515.94797605 52.43244951 -514.14123731 32.31444993 -500.8984375 18.2421875 C-485.22315032 3.48155491 -465.16638844 4.7320614 -445.08203125 4.9140625 C-442.52572001 4.92667279 -439.96940462 4.93846558 -437.41308594 4.94946289 C-423.28814878 5.02587682 -409.17730892 5.25128105 -395.06054688 5.73510742 C-379.96323215 6.24365727 -364.86091152 6.46528972 -349.75730896 6.69316483 C-347.65821091 6.72539289 -345.55914575 6.759226 -343.46008301 6.79367065 C-316.87564557 7.22682361 -290.29439946 7.25295729 -263.70703125 7.1640625 C-262.91990659 7.16148485 -262.13278193 7.15890719 -261.321805 7.15625143 C-236.37078254 7.07380703 -211.42042305 6.93919245 -186.47001839 6.74442959 C-175.57312723 6.66007356 -164.67644303 6.58806781 -153.77929688 6.54663086 C-85.10435062 6.34578072 -85.10435062 6.34578072 -16.87794113 -0.80547142 C-4.42972965 -2.74871363 -4.42972965 -2.74871363 0 0 Z " fill="#FCFDFD" transform="translate(2868.70703125,1418.8359375)"/>
</svg>
