<svg width="3222" height="3247" viewBox="0 0 3222 3247" fill="none" xmlns="http://www.w3.org/2000/svg">
<path d="M3220.97 247.5V3034.5C3221.54 3151.14 3127.1 3246 3010.46 3246C2074.54 3246.04 1199.37 3246.33 271.5 3247L243.51 3245.2C114.975 3236.91 23.5655 3116.72 49.9103 2990.64C58.446 2949.79 78.8652 2912.38 108.602 2883.1L2969.47 66.19C2984.1 51.7864 3000.47 39.2671 3018.2 28.9231L3026.14 24.2932C3031.04 21.4347 3036.14 18.9317 3041.4 16.8032L3042.36 16.4137C3050.42 13.1495 3058.85 10.8547 3067.45 9.57771L3068.66 9.39862C3107.7 3.60527 3146.79 19.61 3170.56 51.1215C3174.51 56.3629 3177.98 61.9544 3180.91 67.8264L3188 82L3195.79 102.602C3200.92 116.175 3204.86 130.169 3207.56 144.425L3214.5 181L3220.97 247.5Z" fill="black"/>
<rect x="1324.5" y="2294" width="573" height="573" rx="32" fill="white"/>
<rect x="2299.5" y="1383" width="559" height="559" rx="32" fill="white"/>
</svg>
