<svg width="3360" height="3359" viewBox="0 0 3360 3359" fill="none" xmlns="http://www.w3.org/2000/svg">
<path d="M3360 128.958V3231C3360 3301.69 3302.69 3359 3232 3359H129.081C15.0363 3359 -42.0691 3221.11 38.584 3140.48L3141.5 38.4353C3222.14 -42.1826 3360 14.9307 3360 128.958Z" fill="black"/>
<path d="M1456 2443C1456 2425.33 1470.33 2411 1488 2411H1997C2014.67 2411 2029 2425.33 2029 2443V2952C2029 2969.67 2014.67 2984 1997 2984H1488C1470.33 2984 1456 2969.67 1456 2952V2443Z" fill="white"/>
<path d="M2450 1509C2450 1491.33 2464.33 1477 2482 1477H2977C2994.67 1477 3009 1491.33 3009 1509V2004C3009 2021.67 2994.67 2036 2977 2036H2482C2464.33 2036 2450 2021.67 2450 2004V1509Z" fill="white"/>
</svg>
